# Blender v2.79 (sub 0) OBJ File: 'assets.blend'
# www.blender.org
mtllib triangle.mtl
o Cylinder_Cylinder.004
v 0.000000 1.000000 -0.245858
v 0.000000 1.000000 0.245858
v 0.866025 -0.500000 -0.245858
v 0.866025 -0.500000 0.245858
v -0.866025 -0.500000 -0.245858
v -0.866025 -0.500000 0.245858
vt 0.499803 1.000000
vt 0.500197 0.820733
vt 1.000000 0.000878
vt 0.999606 0.180145
vt 0.000395 0.000000
vt 0.000000 0.179267
vn 0.8660 0.5000 0.0000
vn -0.0000 -1.0000 -0.0000
vn 0.0000 0.0000 1.0000
vn -0.8660 0.5000 0.0000
vn -0.0000 0.0000 -1.0000
usemtl None
s off
f 1/1/1 2/2/1 4/3/1 3/4/1
f 3/4/2 4/3/2 6/5/2 5/6/2
f 4/3/3 2/2/3 6/5/3
f 5/6/4 6/5/4 2/2/4 1/1/4
f 1/1/5 3/4/5 5/6/5
